# xmcd
#
# Track frame offsets:
#	150
#	18717
#	35511
#	58020
#	73152
#	89789
#	115852
#	130957
#
# Disc length: 2321 seconds
#
# Revision: 0
# Processed by: cddbd v1.5.2PL0 Copyright (c) Steve Scherf et al.
# Submitted via: audiograbber 1.83.01
#
DISCID=77090f08
DTITLE=Young, Neil - Heart of Gold Live 10CD05
DYEAR=1984
DGENRE=POP-ROCK-JAZZ
TTITLE0=California sunset
TTITLE1=It might have been
TTITLE2=Soul of a woman
TTITLE3=Field of opportunity
TTITLE4=Old man
TTITLE5=Powderfinger
TTITLE6=Get back to the country
TTITLE7=Down by the river
EXTD=
EXTT0=
EXTT1=
EXTT2=
EXTT3=
EXTT4=
EXTT5=
EXTT6=
EXTT7=
PLAYORDER=
